<mxfile host="app.diagrams.net" agent="Mozilla/5.0 (Windows NT 10.0; Win64; x64) AppleWebKit/537.36 (KHTML, like Gecko) Chrome/140.0.0.0 Safari/537.36" version="28.2.3">
  <diagram name="use case diagram" id="M8mnAMEWR1y3ZEQltIf7">
    <mxGraphModel dx="1082" dy="548" grid="1" gridSize="10" guides="1" tooltips="1" connect="1" arrows="1" fold="1" page="1" pageScale="1" pageWidth="1400" pageHeight="850" math="0" shadow="0">
      <root>
        <mxCell id="0" />
        <mxCell id="1" parent="0" />
        <mxCell id="kBk8OWzV2t5llNh3ffqJ-1" value="" style="swimlane;startSize=0;fillColor=#fff2cc;strokeColor=#0000FF;" vertex="1" parent="1">
          <mxGeometry x="709" y="220" width="671" height="1190" as="geometry">
            <mxRectangle x="180" y="160" width="50" height="40" as="alternateBounds" />
          </mxGeometry>
        </mxCell>
        <mxCell id="kBk8OWzV2t5llNh3ffqJ-2" value="Akses halaman dashboard" style="ellipse;whiteSpace=wrap;html=1;fillColor=#dae8fc;strokeColor=#6c8ebf;" vertex="1" parent="kBk8OWzV2t5llNh3ffqJ-1">
          <mxGeometry x="72" y="79" width="120" height="50" as="geometry" />
        </mxCell>
        <mxCell id="kBk8OWzV2t5llNh3ffqJ-3" style="edgeStyle=none;curved=0;rounded=1;orthogonalLoop=1;jettySize=auto;html=1;entryX=1;entryY=0;entryDx=0;entryDy=0;fontSize=12;startSize=8;endSize=8;dashed=1;exitX=0.712;exitY=1.016;exitDx=0;exitDy=0;exitPerimeter=0;" edge="1" parent="kBk8OWzV2t5llNh3ffqJ-1" source="kBk8OWzV2t5llNh3ffqJ-5" target="kBk8OWzV2t5llNh3ffqJ-50">
          <mxGeometry relative="1" as="geometry">
            <Array as="points">
              <mxPoint x="235" y="459" />
              <mxPoint x="235" y="558" />
            </Array>
          </mxGeometry>
        </mxCell>
        <mxCell id="kBk8OWzV2t5llNh3ffqJ-4" style="edgeStyle=none;curved=0;rounded=1;orthogonalLoop=1;jettySize=auto;html=1;entryX=1;entryY=0.5;entryDx=0;entryDy=0;fontSize=12;startSize=8;endSize=8;dashed=1;" edge="1" parent="kBk8OWzV2t5llNh3ffqJ-1" source="kBk8OWzV2t5llNh3ffqJ-5" target="kBk8OWzV2t5llNh3ffqJ-51">
          <mxGeometry relative="1" as="geometry">
            <Array as="points">
              <mxPoint x="262" y="449" />
              <mxPoint x="262" y="632" />
            </Array>
          </mxGeometry>
        </mxCell>
        <mxCell id="kBk8OWzV2t5llNh3ffqJ-5" value="login" style="ellipse;whiteSpace=wrap;html=1;fillColor=#dae8fc;strokeColor=#6c8ebf;" vertex="1" parent="kBk8OWzV2t5llNh3ffqJ-1">
          <mxGeometry x="48" y="400" width="73" height="39" as="geometry" />
        </mxCell>
        <mxCell id="kBk8OWzV2t5llNh3ffqJ-6" value="melakukan kontrol&lt;div&gt;mega master&lt;/div&gt;" style="ellipse;whiteSpace=wrap;html=1;fillColor=#dae8fc;strokeColor=#6c8ebf;" vertex="1" parent="kBk8OWzV2t5llNh3ffqJ-1">
          <mxGeometry x="105" y="198" width="120" height="50" as="geometry" />
        </mxCell>
        <mxCell id="kBk8OWzV2t5llNh3ffqJ-7" value="" style="endArrow=none;dashed=1;html=1;rounded=1;exitX=0.5;exitY=1;exitDx=0;exitDy=0;entryX=0.5;entryY=0;entryDx=0;entryDy=0;startArrow=classic;startFill=1;curved=0;" edge="1" parent="kBk8OWzV2t5llNh3ffqJ-1" source="kBk8OWzV2t5llNh3ffqJ-6" target="kBk8OWzV2t5llNh3ffqJ-5">
          <mxGeometry width="50" height="50" relative="1" as="geometry">
            <mxPoint x="169.36" y="303.7500000000001" as="sourcePoint" />
            <mxPoint x="169.63999999999993" y="207.3499999999999" as="targetPoint" />
            <Array as="points">
              <mxPoint x="165" y="340" />
            </Array>
          </mxGeometry>
        </mxCell>
        <mxCell id="kBk8OWzV2t5llNh3ffqJ-8" value="&amp;lt;&amp;lt;include&amp;gt;&amp;gt;" style="text;html=1;align=center;verticalAlign=middle;whiteSpace=wrap;rounded=0;fontSize=8;" vertex="1" parent="kBk8OWzV2t5llNh3ffqJ-1">
          <mxGeometry x="114" y="255" width="60" height="10" as="geometry" />
        </mxCell>
        <mxCell id="kBk8OWzV2t5llNh3ffqJ-9" value="mengatur on/off conveyor" style="ellipse;whiteSpace=wrap;html=1;" vertex="1" parent="kBk8OWzV2t5llNh3ffqJ-1">
          <mxGeometry x="319" y="205" width="120" height="50" as="geometry" />
        </mxCell>
        <mxCell id="kBk8OWzV2t5llNh3ffqJ-10" value="mengatur&lt;div&gt;mode nyala conveyor auto/manual&lt;/div&gt;" style="ellipse;whiteSpace=wrap;html=1;" vertex="1" parent="kBk8OWzV2t5llNh3ffqJ-1">
          <mxGeometry x="319" y="276" width="120" height="50" as="geometry" />
        </mxCell>
        <mxCell id="kBk8OWzV2t5llNh3ffqJ-11" value="mengatur&lt;div&gt;jadwal on/off conveyor&lt;/div&gt;" style="ellipse;whiteSpace=wrap;html=1;" vertex="1" parent="kBk8OWzV2t5llNh3ffqJ-1">
          <mxGeometry x="319" y="342" width="120" height="50" as="geometry" />
        </mxCell>
        <mxCell id="kBk8OWzV2t5llNh3ffqJ-12" value="mengatur&lt;div&gt;waktu (RTC)&lt;/div&gt;" style="ellipse;whiteSpace=wrap;html=1;" vertex="1" parent="kBk8OWzV2t5llNh3ffqJ-1">
          <mxGeometry x="319" y="413" width="120" height="50" as="geometry" />
        </mxCell>
        <mxCell id="kBk8OWzV2t5llNh3ffqJ-13" value="" style="endArrow=none;dashed=1;html=1;rounded=1;entryX=0;entryY=0.5;entryDx=0;entryDy=0;exitX=1;exitY=0;exitDx=0;exitDy=0;curved=0;" edge="1" parent="kBk8OWzV2t5llNh3ffqJ-1" source="kBk8OWzV2t5llNh3ffqJ-6" target="kBk8OWzV2t5llNh3ffqJ-9">
          <mxGeometry width="50" height="50" relative="1" as="geometry">
            <mxPoint x="209" y="354" as="sourcePoint" />
            <mxPoint x="259" y="304" as="targetPoint" />
            <Array as="points">
              <mxPoint x="319" y="205" />
            </Array>
          </mxGeometry>
        </mxCell>
        <mxCell id="kBk8OWzV2t5llNh3ffqJ-14" value="&amp;lt;&amp;lt;extend&amp;gt;&amp;gt;" style="text;html=1;align=center;verticalAlign=middle;whiteSpace=wrap;rounded=0;fontSize=8;" vertex="1" parent="kBk8OWzV2t5llNh3ffqJ-1">
          <mxGeometry x="264" y="209" width="60" height="10" as="geometry" />
        </mxCell>
        <mxCell id="kBk8OWzV2t5llNh3ffqJ-15" value="" style="endArrow=none;dashed=1;html=1;rounded=1;exitX=0.458;exitY=0.018;exitDx=0;exitDy=0;exitPerimeter=0;entryX=0.064;entryY=0.723;entryDx=0;entryDy=0;entryPerimeter=0;curved=0;" edge="1" parent="kBk8OWzV2t5llNh3ffqJ-1" source="kBk8OWzV2t5llNh3ffqJ-6" target="kBk8OWzV2t5llNh3ffqJ-26">
          <mxGeometry width="50" height="50" relative="1" as="geometry">
            <mxPoint x="217" y="186" as="sourcePoint" />
            <mxPoint x="329" y="129" as="targetPoint" />
            <Array as="points">
              <mxPoint x="160" y="165" />
            </Array>
          </mxGeometry>
        </mxCell>
        <mxCell id="kBk8OWzV2t5llNh3ffqJ-16" value="&amp;lt;&amp;lt;extend&amp;gt;&amp;gt;" style="text;html=1;align=center;verticalAlign=middle;whiteSpace=wrap;rounded=0;fontSize=8;" vertex="1" parent="kBk8OWzV2t5llNh3ffqJ-1">
          <mxGeometry x="167" y="167" width="60" height="10" as="geometry" />
        </mxCell>
        <mxCell id="kBk8OWzV2t5llNh3ffqJ-17" value="" style="endArrow=none;dashed=1;html=1;rounded=1;exitX=0.979;exitY=0.368;exitDx=0;exitDy=0;exitPerimeter=0;entryX=0;entryY=0.5;entryDx=0;entryDy=0;curved=0;" edge="1" parent="kBk8OWzV2t5llNh3ffqJ-1" source="kBk8OWzV2t5llNh3ffqJ-6" target="kBk8OWzV2t5llNh3ffqJ-10">
          <mxGeometry width="50" height="50" relative="1" as="geometry">
            <mxPoint x="217" y="186" as="sourcePoint" />
            <mxPoint x="329" y="129" as="targetPoint" />
            <Array as="points">
              <mxPoint x="250" y="216" />
              <mxPoint x="250" y="300" />
            </Array>
          </mxGeometry>
        </mxCell>
        <mxCell id="kBk8OWzV2t5llNh3ffqJ-18" value="" style="endArrow=none;dashed=1;html=1;rounded=1;exitX=0.972;exitY=0.648;exitDx=0;exitDy=0;exitPerimeter=0;entryX=0;entryY=0.5;entryDx=0;entryDy=0;curved=0;" edge="1" parent="kBk8OWzV2t5llNh3ffqJ-1" source="kBk8OWzV2t5llNh3ffqJ-6" target="kBk8OWzV2t5llNh3ffqJ-11">
          <mxGeometry width="50" height="50" relative="1" as="geometry">
            <mxPoint x="232" y="197" as="sourcePoint" />
            <mxPoint x="331" y="208" as="targetPoint" />
            <Array as="points">
              <mxPoint x="222" y="367" />
            </Array>
          </mxGeometry>
        </mxCell>
        <mxCell id="kBk8OWzV2t5llNh3ffqJ-19" value="" style="endArrow=none;dashed=1;html=1;rounded=1;exitX=0.908;exitY=0.842;exitDx=0;exitDy=0;exitPerimeter=0;entryX=0.017;entryY=0.345;entryDx=0;entryDy=0;entryPerimeter=0;curved=0;" edge="1" parent="kBk8OWzV2t5llNh3ffqJ-1">
          <mxGeometry width="50" height="50" relative="1" as="geometry">
            <mxPoint x="212.96000000000004" y="240.10000000000002" as="sourcePoint" />
            <mxPoint x="320.0400000000001" y="430.25" as="targetPoint" />
            <Array as="points">
              <mxPoint x="213" y="430" />
            </Array>
          </mxGeometry>
        </mxCell>
        <mxCell id="kBk8OWzV2t5llNh3ffqJ-20" value="&amp;lt;&amp;lt;extend&amp;gt;&amp;gt;" style="text;html=1;align=center;verticalAlign=middle;whiteSpace=wrap;rounded=0;fontSize=8;" vertex="1" parent="kBk8OWzV2t5llNh3ffqJ-1">
          <mxGeometry x="246" y="286" width="60" height="10" as="geometry" />
        </mxCell>
        <mxCell id="kBk8OWzV2t5llNh3ffqJ-21" value="&amp;lt;&amp;lt;extend&amp;gt;&amp;gt;" style="text;html=1;align=center;verticalAlign=middle;whiteSpace=wrap;rounded=0;fontSize=8;" vertex="1" parent="kBk8OWzV2t5llNh3ffqJ-1">
          <mxGeometry x="220" y="353" width="60" height="10" as="geometry" />
        </mxCell>
        <mxCell id="kBk8OWzV2t5llNh3ffqJ-22" value="&amp;lt;&amp;lt;extend&amp;gt;&amp;gt;" style="text;html=1;align=center;verticalAlign=middle;whiteSpace=wrap;rounded=0;fontSize=8;" vertex="1" parent="kBk8OWzV2t5llNh3ffqJ-1">
          <mxGeometry x="211" y="415" width="60" height="10" as="geometry" />
        </mxCell>
        <mxCell id="kBk8OWzV2t5llNh3ffqJ-23" value="Aplikasi Web&amp;nbsp;&lt;div&gt;Realtime Monitoring Sensor Arus dan Power Meter Pabrik Semen Merah Putih Wajok&amp;nbsp;&lt;/div&gt;" style="text;html=1;align=center;verticalAlign=middle;whiteSpace=wrap;rounded=1;fillColor=#dae8fc;strokeColor=#6c8ebf;fillStyle=solid;gradientColor=none;perimeterSpacing=0;strokeWidth=1;spacingTop=1;spacingBottom=1;" vertex="1" parent="kBk8OWzV2t5llNh3ffqJ-1">
          <mxGeometry x="72" y="6" width="508" height="30" as="geometry" />
        </mxCell>
        <mxCell id="kBk8OWzV2t5llNh3ffqJ-24" style="edgeStyle=none;curved=0;rounded=1;orthogonalLoop=1;jettySize=auto;html=1;exitX=1;exitY=0.5;exitDx=0;exitDy=0;entryX=0;entryY=0.5;entryDx=0;entryDy=0;fontSize=12;startSize=8;endSize=8;endArrow=none;endFill=0;dashed=1;" edge="1" parent="kBk8OWzV2t5llNh3ffqJ-1" source="kBk8OWzV2t5llNh3ffqJ-26" target="kBk8OWzV2t5llNh3ffqJ-42">
          <mxGeometry relative="1" as="geometry">
            <Array as="points">
              <mxPoint x="441" y="104" />
              <mxPoint x="452" y="89" />
            </Array>
          </mxGeometry>
        </mxCell>
        <mxCell id="kBk8OWzV2t5llNh3ffqJ-26" value="monitoring&lt;div&gt;Mega Master&lt;/div&gt;" style="ellipse;whiteSpace=wrap;html=1;fillColor=#dae8fc;strokeColor=#6c8ebf;" vertex="1" parent="kBk8OWzV2t5llNh3ffqJ-1">
          <mxGeometry x="271" y="79" width="120" height="50" as="geometry" />
        </mxCell>
        <mxCell id="kBk8OWzV2t5llNh3ffqJ-28" value="" style="endArrow=none;dashed=1;html=1;rounded=1;exitX=1;exitY=0.5;exitDx=0;exitDy=0;entryX=0.025;entryY=0.346;entryDx=0;entryDy=0;entryPerimeter=0;curved=0;" edge="1" parent="kBk8OWzV2t5llNh3ffqJ-1" source="kBk8OWzV2t5llNh3ffqJ-2" target="kBk8OWzV2t5llNh3ffqJ-26">
          <mxGeometry width="50" height="50" relative="1" as="geometry">
            <mxPoint x="170" y="209" as="sourcePoint" />
            <mxPoint x="290" y="159" as="targetPoint" />
            <Array as="points">
              <mxPoint x="221" y="96" />
            </Array>
          </mxGeometry>
        </mxCell>
        <mxCell id="kBk8OWzV2t5llNh3ffqJ-33" value="kirim data&amp;nbsp;&lt;div&gt;update ke web&lt;/div&gt;" style="ellipse;whiteSpace=wrap;html=1;" vertex="1" parent="kBk8OWzV2t5llNh3ffqJ-1">
          <mxGeometry x="490" y="270" width="120" height="50" as="geometry" />
        </mxCell>
        <mxCell id="kBk8OWzV2t5llNh3ffqJ-34" value="baca perintah&lt;div&gt;kontrol dari web&lt;/div&gt;" style="ellipse;whiteSpace=wrap;html=1;" vertex="1" parent="kBk8OWzV2t5llNh3ffqJ-1">
          <mxGeometry x="494" y="342" width="120" height="50" as="geometry" />
        </mxCell>
        <mxCell id="kBk8OWzV2t5llNh3ffqJ-35" style="edgeStyle=none;curved=0;rounded=1;orthogonalLoop=1;jettySize=auto;html=1;entryX=1;entryY=0.5;entryDx=0;entryDy=0;fontSize=12;startSize=8;endSize=8;endArrow=none;endFill=0;" edge="1" parent="kBk8OWzV2t5llNh3ffqJ-1" source="kBk8OWzV2t5llNh3ffqJ-36" target="kBk8OWzV2t5llNh3ffqJ-54">
          <mxGeometry relative="1" as="geometry">
            <Array as="points">
              <mxPoint x="667" y="434" />
            </Array>
          </mxGeometry>
        </mxCell>
        <mxCell id="kBk8OWzV2t5llNh3ffqJ-84" style="rounded=1;orthogonalLoop=1;jettySize=auto;html=1;entryX=1;entryY=0.5;entryDx=0;entryDy=0;endArrow=none;endFill=0;" edge="1" parent="kBk8OWzV2t5llNh3ffqJ-1" source="kBk8OWzV2t5llNh3ffqJ-36" target="kBk8OWzV2t5llNh3ffqJ-83">
          <mxGeometry relative="1" as="geometry">
            <Array as="points">
              <mxPoint x="731" y="505" />
            </Array>
          </mxGeometry>
        </mxCell>
        <mxCell id="kBk8OWzV2t5llNh3ffqJ-86" style="edgeStyle=orthogonalEdgeStyle;rounded=1;orthogonalLoop=1;jettySize=auto;html=1;exitX=1;exitY=1;exitDx=0;exitDy=0;exitPerimeter=0;entryX=1;entryY=0.5;entryDx=0;entryDy=0;curved=0;endArrow=none;endFill=0;" edge="1" parent="kBk8OWzV2t5llNh3ffqJ-1" source="kBk8OWzV2t5llNh3ffqJ-36" target="kBk8OWzV2t5llNh3ffqJ-85">
          <mxGeometry relative="1" as="geometry" />
        </mxCell>
        <mxCell id="kBk8OWzV2t5llNh3ffqJ-88" style="rounded=1;orthogonalLoop=1;jettySize=auto;html=1;exitX=0;exitY=1;exitDx=0;exitDy=0;exitPerimeter=0;endArrow=none;endFill=0;" edge="1" parent="kBk8OWzV2t5llNh3ffqJ-1" source="kBk8OWzV2t5llNh3ffqJ-36" target="kBk8OWzV2t5llNh3ffqJ-87">
          <mxGeometry relative="1" as="geometry">
            <Array as="points">
              <mxPoint x="691" y="470" />
              <mxPoint x="471" y="470" />
            </Array>
          </mxGeometry>
        </mxCell>
        <mxCell id="kBk8OWzV2t5llNh3ffqJ-36" value="Mega Master" style="shape=umlActor;verticalLabelPosition=bottom;verticalAlign=top;html=1;outlineConnect=0;fontColor=light-dark(#ff0000, #ededed);fontStyle=1" vertex="1" parent="kBk8OWzV2t5llNh3ffqJ-1">
          <mxGeometry x="718" y="353" width="30" height="60" as="geometry" />
        </mxCell>
        <mxCell id="kBk8OWzV2t5llNh3ffqJ-37" value="" style="endArrow=none;html=1;rounded=1;entryX=0.5;entryY=0;entryDx=0;entryDy=0;entryPerimeter=0;exitX=1;exitY=0.5;exitDx=0;exitDy=0;curved=0;" edge="1" parent="kBk8OWzV2t5llNh3ffqJ-1" source="kBk8OWzV2t5llNh3ffqJ-33" target="kBk8OWzV2t5llNh3ffqJ-36">
          <mxGeometry width="50" height="50" relative="1" as="geometry">
            <mxPoint x="510" y="475" as="sourcePoint" />
            <mxPoint x="560" y="425" as="targetPoint" />
            <Array as="points">
              <mxPoint x="733" y="295" />
            </Array>
          </mxGeometry>
        </mxCell>
        <mxCell id="kBk8OWzV2t5llNh3ffqJ-38" value="" style="endArrow=none;html=1;rounded=1;curved=0;exitX=1;exitY=0.5;exitDx=0;exitDy=0;entryX=0.218;entryY=0.242;entryDx=0;entryDy=0;entryPerimeter=0;" edge="1" parent="kBk8OWzV2t5llNh3ffqJ-1" source="kBk8OWzV2t5llNh3ffqJ-34" target="kBk8OWzV2t5llNh3ffqJ-36">
          <mxGeometry width="50" height="50" relative="1" as="geometry">
            <mxPoint x="640" y="355" as="sourcePoint" />
            <mxPoint x="710" y="367" as="targetPoint" />
            <Array as="points" />
          </mxGeometry>
        </mxCell>
        <mxCell id="kBk8OWzV2t5llNh3ffqJ-39" value="monitoring&lt;div&gt;online/offline&lt;/div&gt;" style="ellipse;whiteSpace=wrap;html=1;" vertex="1" parent="kBk8OWzV2t5llNh3ffqJ-1">
          <mxGeometry x="487" y="167" width="120" height="50" as="geometry" />
        </mxCell>
        <mxCell id="kBk8OWzV2t5llNh3ffqJ-40" style="edgeStyle=none;curved=1;rounded=0;orthogonalLoop=1;jettySize=auto;html=1;fontSize=12;startSize=8;endSize=8;dashed=1;endArrow=none;endFill=0;" edge="1" parent="kBk8OWzV2t5llNh3ffqJ-1" source="kBk8OWzV2t5llNh3ffqJ-41" target="kBk8OWzV2t5llNh3ffqJ-26">
          <mxGeometry relative="1" as="geometry" />
        </mxCell>
        <mxCell id="kBk8OWzV2t5llNh3ffqJ-41" value="monitoring&lt;div&gt;on/off conveyor&lt;/div&gt;" style="ellipse;whiteSpace=wrap;html=1;" vertex="1" parent="kBk8OWzV2t5llNh3ffqJ-1">
          <mxGeometry x="482" y="107" width="120" height="50" as="geometry" />
        </mxCell>
        <mxCell id="kBk8OWzV2t5llNh3ffqJ-42" value="monitoring&lt;div&gt;power meter&lt;/div&gt;" style="ellipse;whiteSpace=wrap;html=1;" vertex="1" parent="kBk8OWzV2t5llNh3ffqJ-1">
          <mxGeometry x="482" y="50" width="120" height="50" as="geometry" />
        </mxCell>
        <mxCell id="kBk8OWzV2t5llNh3ffqJ-43" value="kelola&amp;nbsp;&lt;div&gt;data conveyor&lt;div&gt;(Mega Master)&lt;/div&gt;&lt;/div&gt;" style="ellipse;whiteSpace=wrap;html=1;fillColor=#dae8fc;strokeColor=#6c8ebf;" vertex="1" parent="kBk8OWzV2t5llNh3ffqJ-1">
          <mxGeometry x="109" y="483" width="121" height="61" as="geometry" />
        </mxCell>
        <mxCell id="kBk8OWzV2t5llNh3ffqJ-44" style="edgeStyle=none;curved=0;rounded=1;orthogonalLoop=1;jettySize=auto;html=1;entryX=0.5;entryY=0;entryDx=0;entryDy=0;fontSize=12;startSize=8;endSize=8;dashed=1;exitX=0.454;exitY=1.052;exitDx=0;exitDy=0;exitPerimeter=0;" edge="1" parent="kBk8OWzV2t5llNh3ffqJ-1" source="kBk8OWzV2t5llNh3ffqJ-5" target="kBk8OWzV2t5llNh3ffqJ-43">
          <mxGeometry relative="1" as="geometry">
            <Array as="points">
              <mxPoint x="81" y="468" />
              <mxPoint x="170" y="470" />
            </Array>
          </mxGeometry>
        </mxCell>
        <mxCell id="kBk8OWzV2t5llNh3ffqJ-46" style="edgeStyle=none;curved=0;rounded=1;orthogonalLoop=1;jettySize=auto;html=1;exitX=1;exitY=1;exitDx=0;exitDy=0;entryX=0;entryY=0.5;entryDx=0;entryDy=0;fontSize=12;startSize=8;endSize=8;endArrow=none;endFill=0;dashed=1;" edge="1" parent="kBk8OWzV2t5llNh3ffqJ-1" source="kBk8OWzV2t5llNh3ffqJ-26" target="kBk8OWzV2t5llNh3ffqJ-39">
          <mxGeometry relative="1" as="geometry">
            <mxPoint x="410" y="164" as="sourcePoint" />
            <mxPoint x="489" y="99" as="targetPoint" />
            <Array as="points">
              <mxPoint x="450" y="154" />
              <mxPoint x="451" y="192" />
            </Array>
          </mxGeometry>
        </mxCell>
        <mxCell id="kBk8OWzV2t5llNh3ffqJ-47" value="&amp;lt;&amp;lt;extend&amp;gt;&amp;gt;" style="text;html=1;align=center;verticalAlign=middle;whiteSpace=wrap;rounded=0;fontSize=8;" vertex="1" parent="kBk8OWzV2t5llNh3ffqJ-1">
          <mxGeometry x="390" y="157" width="60" height="10" as="geometry" />
        </mxCell>
        <mxCell id="kBk8OWzV2t5llNh3ffqJ-49" value="&amp;lt;&amp;lt;include&amp;gt;&amp;gt;" style="text;html=1;align=center;verticalAlign=middle;whiteSpace=wrap;rounded=0;fontSize=8;" vertex="1" parent="kBk8OWzV2t5llNh3ffqJ-1">
          <mxGeometry x="76" y="455" width="60" height="10" as="geometry" />
        </mxCell>
        <mxCell id="kBk8OWzV2t5llNh3ffqJ-50" value="kelola data&amp;nbsp;&lt;div&gt;power meter&lt;/div&gt;&lt;div&gt;(Mega Slave 1)&lt;/div&gt;" style="ellipse;whiteSpace=wrap;html=1;fillColor=#dae8fc;strokeColor=#6c8ebf;" vertex="1" parent="kBk8OWzV2t5llNh3ffqJ-1">
          <mxGeometry x="113" y="554" width="117" height="56" as="geometry" />
        </mxCell>
        <mxCell id="kBk8OWzV2t5llNh3ffqJ-51" value="import data log" style="ellipse;whiteSpace=wrap;html=1;fillColor=#dae8fc;strokeColor=#6c8ebf;" vertex="1" parent="kBk8OWzV2t5llNh3ffqJ-1">
          <mxGeometry x="121" y="619" width="101" height="50" as="geometry" />
        </mxCell>
        <mxCell id="kBk8OWzV2t5llNh3ffqJ-53" value="request info&amp;nbsp;&lt;div&gt;telegram&lt;/div&gt;" style="ellipse;whiteSpace=wrap;html=1;" vertex="1" parent="kBk8OWzV2t5llNh3ffqJ-1">
          <mxGeometry x="119" y="692" width="120" height="50" as="geometry" />
        </mxCell>
        <mxCell id="kBk8OWzV2t5llNh3ffqJ-54" value="baca data arus conveyor" style="ellipse;whiteSpace=wrap;html=1;" vertex="1" parent="kBk8OWzV2t5llNh3ffqJ-1">
          <mxGeometry x="490" y="409" width="120" height="50" as="geometry" />
        </mxCell>
        <mxCell id="kBk8OWzV2t5llNh3ffqJ-58" value="&amp;lt;&amp;lt;include&amp;gt;&amp;gt;" style="text;html=1;align=center;verticalAlign=middle;whiteSpace=wrap;rounded=0;fontSize=8;" vertex="1" parent="kBk8OWzV2t5llNh3ffqJ-1">
          <mxGeometry x="114" y="417" width="60" height="10" as="geometry" />
        </mxCell>
        <mxCell id="kBk8OWzV2t5llNh3ffqJ-59" value="&amp;lt;&amp;lt;include&amp;gt;&amp;gt;" style="text;html=1;align=center;verticalAlign=middle;whiteSpace=wrap;rounded=0;fontSize=8;" vertex="1" parent="kBk8OWzV2t5llNh3ffqJ-1">
          <mxGeometry x="101" y="433" width="60" height="10" as="geometry" />
        </mxCell>
        <mxCell id="kBk8OWzV2t5llNh3ffqJ-52" value="kirim notifikasi&lt;div&gt;telegram&lt;/div&gt;" style="ellipse;whiteSpace=wrap;html=1;" vertex="1" parent="kBk8OWzV2t5llNh3ffqJ-1">
          <mxGeometry x="465" y="781" width="120" height="50" as="geometry" />
        </mxCell>
        <mxCell id="kBk8OWzV2t5llNh3ffqJ-56" value="kirim respon ke pengguna" style="ellipse;whiteSpace=wrap;html=1;" vertex="1" parent="kBk8OWzV2t5llNh3ffqJ-1">
          <mxGeometry x="464" y="839" width="120" height="50" as="geometry" />
        </mxCell>
        <mxCell id="kBk8OWzV2t5llNh3ffqJ-57" value="baca perubahan RTDB" style="ellipse;whiteSpace=wrap;html=1;" vertex="1" parent="kBk8OWzV2t5llNh3ffqJ-1">
          <mxGeometry x="467" y="719" width="120" height="50" as="geometry" />
        </mxCell>
        <mxCell id="kBk8OWzV2t5llNh3ffqJ-74" style="edgeStyle=none;curved=1;rounded=0;orthogonalLoop=1;jettySize=auto;html=1;fontSize=12;startSize=8;endSize=8;endArrow=none;endFill=0;" edge="1" parent="kBk8OWzV2t5llNh3ffqJ-1" source="kBk8OWzV2t5llNh3ffqJ-75" target="kBk8OWzV2t5llNh3ffqJ-52">
          <mxGeometry relative="1" as="geometry" />
        </mxCell>
        <mxCell id="kBk8OWzV2t5llNh3ffqJ-75" value="bot telegram&lt;div&gt;(NodeJS)&lt;/div&gt;" style="shape=umlActor;verticalLabelPosition=bottom;verticalAlign=top;html=1;outlineConnect=0;" vertex="1" parent="kBk8OWzV2t5llNh3ffqJ-1">
          <mxGeometry x="718" y="762" width="30" height="60" as="geometry" />
        </mxCell>
        <mxCell id="kBk8OWzV2t5llNh3ffqJ-78" style="edgeStyle=none;curved=1;rounded=0;orthogonalLoop=1;jettySize=auto;html=1;fontSize=12;startSize=8;endSize=8;endArrow=none;endFill=0;exitX=1;exitY=0.5;exitDx=0;exitDy=0;" edge="1" parent="kBk8OWzV2t5llNh3ffqJ-1" source="kBk8OWzV2t5llNh3ffqJ-56" target="kBk8OWzV2t5llNh3ffqJ-75">
          <mxGeometry relative="1" as="geometry" />
        </mxCell>
        <mxCell id="kBk8OWzV2t5llNh3ffqJ-79" style="edgeStyle=none;curved=1;rounded=0;orthogonalLoop=1;jettySize=auto;html=1;entryX=0;entryY=0.3333333333333333;entryDx=0;entryDy=0;entryPerimeter=0;fontSize=12;startSize=8;endSize=8;endArrow=none;endFill=0;" edge="1" parent="kBk8OWzV2t5llNh3ffqJ-1" source="kBk8OWzV2t5llNh3ffqJ-57" target="kBk8OWzV2t5llNh3ffqJ-75">
          <mxGeometry relative="1" as="geometry" />
        </mxCell>
        <mxCell id="kBk8OWzV2t5llNh3ffqJ-55" value="sebarkan perubahan data RTDB" style="ellipse;whiteSpace=wrap;html=1;" vertex="1" parent="kBk8OWzV2t5llNh3ffqJ-1">
          <mxGeometry x="464.5" y="642" width="131" height="50" as="geometry" />
        </mxCell>
        <mxCell id="kBk8OWzV2t5llNh3ffqJ-83" value="baca data arus conveyor" style="ellipse;whiteSpace=wrap;html=1;" vertex="1" parent="kBk8OWzV2t5llNh3ffqJ-1">
          <mxGeometry x="490" y="480" width="120" height="50" as="geometry" />
        </mxCell>
        <mxCell id="kBk8OWzV2t5llNh3ffqJ-85" value="memberikan&amp;nbsp;&lt;div&gt;warning&amp;nbsp;&lt;span style=&quot;background-color: transparent; color: light-dark(rgb(0, 0, 0), rgb(255, 255, 255));&quot;&gt;arus&amp;nbsp;&lt;/span&gt;&lt;/div&gt;&lt;div&gt;&lt;span style=&quot;background-color: transparent; color: light-dark(rgb(0, 0, 0), rgb(255, 255, 255));&quot;&gt;berlebih&lt;/span&gt;&lt;/div&gt;" style="ellipse;whiteSpace=wrap;html=1;" vertex="1" parent="kBk8OWzV2t5llNh3ffqJ-1">
          <mxGeometry x="487" y="550" width="120" height="50" as="geometry" />
        </mxCell>
        <mxCell id="kBk8OWzV2t5llNh3ffqJ-87" value="hitung durasi on conveyor" style="ellipse;whiteSpace=wrap;html=1;" vertex="1" parent="kBk8OWzV2t5llNh3ffqJ-1">
          <mxGeometry x="319" y="480" width="120" height="50" as="geometry" />
        </mxCell>
        <mxCell id="kBk8OWzV2t5llNh3ffqJ-89" value="atur on/off&amp;nbsp;&lt;div&gt;conveyor&lt;/div&gt;" style="ellipse;whiteSpace=wrap;html=1;" vertex="1" parent="kBk8OWzV2t5llNh3ffqJ-1">
          <mxGeometry x="333" y="548" width="92" height="50" as="geometry" />
        </mxCell>
        <mxCell id="kBk8OWzV2t5llNh3ffqJ-90" style="rounded=1;orthogonalLoop=1;jettySize=auto;html=1;entryX=0.953;entryY=0.249;entryDx=0;entryDy=0;entryPerimeter=0;endArrow=none;endFill=0;" edge="1" parent="kBk8OWzV2t5llNh3ffqJ-1" target="kBk8OWzV2t5llNh3ffqJ-89">
          <mxGeometry relative="1" as="geometry">
            <mxPoint x="741" y="413" as="sourcePoint" />
            <Array as="points">
              <mxPoint x="741" y="540" />
              <mxPoint x="461" y="540" />
            </Array>
          </mxGeometry>
        </mxCell>
        <mxCell id="kBk8OWzV2t5llNh3ffqJ-92" value="baca data&amp;nbsp;&lt;div&gt;power meter&lt;/div&gt;" style="ellipse;whiteSpace=wrap;html=1;" vertex="1" parent="kBk8OWzV2t5llNh3ffqJ-1">
          <mxGeometry x="464" y="950" width="120" height="50" as="geometry" />
        </mxCell>
        <mxCell id="kBk8OWzV2t5llNh3ffqJ-94" value="kirim data ke&lt;div&gt;Mega Master&lt;/div&gt;" style="ellipse;whiteSpace=wrap;html=1;" vertex="1" parent="kBk8OWzV2t5llNh3ffqJ-1">
          <mxGeometry x="306" y="950" width="120" height="50" as="geometry" />
        </mxCell>
        <mxCell id="kBk8OWzV2t5llNh3ffqJ-98" value="menerima data dari Mega Master" style="ellipse;whiteSpace=wrap;html=1;" vertex="1" parent="kBk8OWzV2t5llNh3ffqJ-1">
          <mxGeometry x="471" y="1074" width="120" height="50" as="geometry" />
        </mxCell>
        <mxCell id="kBk8OWzV2t5llNh3ffqJ-100" value="menampilkan data&amp;nbsp;&lt;div&gt;ke&amp;nbsp;&lt;span style=&quot;background-color: transparent; color: light-dark(rgb(0, 0, 0), rgb(255, 255, 255));&quot;&gt;Panel P10&lt;/span&gt;&lt;/div&gt;" style="ellipse;whiteSpace=wrap;html=1;" vertex="1" parent="kBk8OWzV2t5llNh3ffqJ-1">
          <mxGeometry x="306" y="1074" width="120" height="50" as="geometry" />
        </mxCell>
        <mxCell id="kBk8OWzV2t5llNh3ffqJ-62" style="edgeStyle=none;curved=0;rounded=1;orthogonalLoop=1;jettySize=auto;html=1;fontSize=12;startSize=8;endSize=8;endArrow=none;endFill=0;entryX=0.323;entryY=0.024;entryDx=0;entryDy=0;entryPerimeter=0;" edge="1" parent="1" source="kBk8OWzV2t5llNh3ffqJ-67" target="kBk8OWzV2t5llNh3ffqJ-5">
          <mxGeometry relative="1" as="geometry">
            <Array as="points">
              <mxPoint x="778" y="473" />
            </Array>
          </mxGeometry>
        </mxCell>
        <mxCell id="kBk8OWzV2t5llNh3ffqJ-63" style="edgeStyle=none;curved=0;rounded=1;orthogonalLoop=1;jettySize=auto;html=1;entryX=0;entryY=0.5;entryDx=0;entryDy=0;fontSize=12;startSize=8;endSize=8;endArrow=none;endFill=0;" edge="1" parent="1" source="kBk8OWzV2t5llNh3ffqJ-67" target="kBk8OWzV2t5llNh3ffqJ-43">
          <mxGeometry relative="1" as="geometry">
            <Array as="points">
              <mxPoint x="731" y="511" />
              <mxPoint x="731" y="731" />
            </Array>
          </mxGeometry>
        </mxCell>
        <mxCell id="kBk8OWzV2t5llNh3ffqJ-64" style="edgeStyle=none;curved=0;rounded=1;orthogonalLoop=1;jettySize=auto;html=1;entryX=0;entryY=0.5;entryDx=0;entryDy=0;fontSize=12;startSize=8;endSize=8;endArrow=none;endFill=0;" edge="1" parent="1" source="kBk8OWzV2t5llNh3ffqJ-67" target="kBk8OWzV2t5llNh3ffqJ-50">
          <mxGeometry relative="1" as="geometry">
            <Array as="points">
              <mxPoint x="685" y="518" />
              <mxPoint x="685" y="799" />
            </Array>
          </mxGeometry>
        </mxCell>
        <mxCell id="kBk8OWzV2t5llNh3ffqJ-65" style="edgeStyle=none;curved=0;rounded=1;orthogonalLoop=1;jettySize=auto;html=1;entryX=0;entryY=0.5;entryDx=0;entryDy=0;fontSize=12;startSize=8;endSize=8;endArrow=none;endFill=0;" edge="1" parent="1" source="kBk8OWzV2t5llNh3ffqJ-67" target="kBk8OWzV2t5llNh3ffqJ-51">
          <mxGeometry relative="1" as="geometry">
            <Array as="points">
              <mxPoint x="655" y="528" />
              <mxPoint x="661" y="864" />
            </Array>
          </mxGeometry>
        </mxCell>
        <mxCell id="kBk8OWzV2t5llNh3ffqJ-66" style="edgeStyle=none;curved=0;rounded=1;orthogonalLoop=1;jettySize=auto;html=1;entryX=0;entryY=0.5;entryDx=0;entryDy=0;fontSize=12;startSize=8;endSize=8;endArrow=none;endFill=0;" edge="1" parent="1" source="kBk8OWzV2t5llNh3ffqJ-67" target="kBk8OWzV2t5llNh3ffqJ-53">
          <mxGeometry relative="1" as="geometry">
            <Array as="points">
              <mxPoint x="610" y="933" />
            </Array>
          </mxGeometry>
        </mxCell>
        <mxCell id="kBk8OWzV2t5llNh3ffqJ-67" value="pengguna" style="shape=umlActor;verticalLabelPosition=bottom;verticalAlign=top;html=1;outlineConnect=0;" vertex="1" parent="1">
          <mxGeometry x="589" y="417" width="30" height="60" as="geometry" />
        </mxCell>
        <mxCell id="kBk8OWzV2t5llNh3ffqJ-68" value="" style="endArrow=none;html=1;rounded=1;curved=0;entryX=0;entryY=0.5;entryDx=0;entryDy=0;" edge="1" parent="1" source="kBk8OWzV2t5llNh3ffqJ-67" target="kBk8OWzV2t5llNh3ffqJ-2">
          <mxGeometry width="50" height="50" relative="1" as="geometry">
            <mxPoint x="619" y="439" as="sourcePoint" />
            <mxPoint x="780" y="329" as="targetPoint" />
            <Array as="points">
              <mxPoint x="679" y="439" />
              <mxPoint x="679" y="329" />
            </Array>
          </mxGeometry>
        </mxCell>
        <mxCell id="kBk8OWzV2t5llNh3ffqJ-69" value="" style="endArrow=none;html=1;rounded=0;entryX=0.015;entryY=0.625;entryDx=0;entryDy=0;entryPerimeter=0;" edge="1" parent="1" source="kBk8OWzV2t5llNh3ffqJ-67" target="kBk8OWzV2t5llNh3ffqJ-6">
          <mxGeometry width="50" height="50" relative="1" as="geometry">
            <mxPoint x="719" y="429" as="sourcePoint" />
            <mxPoint x="769" y="379" as="targetPoint" />
          </mxGeometry>
        </mxCell>
        <mxCell id="kBk8OWzV2t5llNh3ffqJ-76" value="RTDB&lt;br&gt;(Firebase)" style="shape=umlActor;verticalLabelPosition=bottom;verticalAlign=top;html=1;outlineConnect=0;" vertex="1" parent="1">
          <mxGeometry x="1420" y="860" width="30" height="60" as="geometry" />
        </mxCell>
        <mxCell id="kBk8OWzV2t5llNh3ffqJ-77" style="edgeStyle=none;curved=0;rounded=1;orthogonalLoop=1;jettySize=auto;html=1;fontSize=12;startSize=8;endSize=8;endArrow=none;endFill=0;" edge="1" parent="1" source="kBk8OWzV2t5llNh3ffqJ-55" target="kBk8OWzV2t5llNh3ffqJ-76">
          <mxGeometry relative="1" as="geometry">
            <mxPoint x="1422" y="885" as="targetPoint" />
          </mxGeometry>
        </mxCell>
        <mxCell id="kBk8OWzV2t5llNh3ffqJ-91" value="Mega Slave 1" style="shape=umlActor;verticalLabelPosition=bottom;verticalAlign=top;html=1;outlineConnect=0;fontColor=light-dark(#ff0000, #ededed);fontStyle=1" vertex="1" parent="1">
          <mxGeometry x="1430" y="1150" width="30" height="60" as="geometry" />
        </mxCell>
        <mxCell id="kBk8OWzV2t5llNh3ffqJ-93" style="rounded=1;orthogonalLoop=1;jettySize=auto;html=1;endArrow=none;endFill=0;" edge="1" parent="1" source="kBk8OWzV2t5llNh3ffqJ-92" target="kBk8OWzV2t5llNh3ffqJ-91">
          <mxGeometry relative="1" as="geometry">
            <Array as="points">
              <mxPoint x="1380" y="1190" />
            </Array>
          </mxGeometry>
        </mxCell>
        <mxCell id="kBk8OWzV2t5llNh3ffqJ-95" style="rounded=1;orthogonalLoop=1;jettySize=auto;html=1;endArrow=none;endFill=0;exitX=1;exitY=0;exitDx=0;exitDy=0;entryX=0.25;entryY=0.1;entryDx=0;entryDy=0;entryPerimeter=0;" edge="1" parent="1" source="kBk8OWzV2t5llNh3ffqJ-94" target="kBk8OWzV2t5llNh3ffqJ-91">
          <mxGeometry relative="1" as="geometry">
            <mxPoint x="1350" y="1180" as="sourcePoint" />
            <mxPoint x="1487" y="1180" as="targetPoint" />
            <Array as="points">
              <mxPoint x="1170" y="1156" />
            </Array>
          </mxGeometry>
        </mxCell>
        <mxCell id="kBk8OWzV2t5llNh3ffqJ-96" value="Mega Slave 2" style="shape=umlActor;verticalLabelPosition=bottom;verticalAlign=top;html=1;outlineConnect=0;fontColor=light-dark(#ff0000, #ededed);fontStyle=1" vertex="1" parent="1">
          <mxGeometry x="1430" y="1290" width="30" height="60" as="geometry" />
        </mxCell>
        <mxCell id="kBk8OWzV2t5llNh3ffqJ-99" style="rounded=1;orthogonalLoop=1;jettySize=auto;html=1;endArrow=none;endFill=0;entryX=0.5;entryY=0.5;entryDx=0;entryDy=0;entryPerimeter=0;" edge="1" parent="1" source="kBk8OWzV2t5llNh3ffqJ-98" target="kBk8OWzV2t5llNh3ffqJ-96">
          <mxGeometry relative="1" as="geometry">
            <mxPoint x="1437" y="1312" as="targetPoint" />
            <Array as="points">
              <mxPoint x="1387" y="1320" />
            </Array>
          </mxGeometry>
        </mxCell>
        <mxCell id="kBk8OWzV2t5llNh3ffqJ-101" style="rounded=1;orthogonalLoop=1;jettySize=auto;html=1;endArrow=none;endFill=0;entryX=0.25;entryY=0.1;entryDx=0;entryDy=0;entryPerimeter=0;exitX=0.571;exitY=0.057;exitDx=0;exitDy=0;exitPerimeter=0;" edge="1" parent="1" source="kBk8OWzV2t5llNh3ffqJ-100" target="kBk8OWzV2t5llNh3ffqJ-96">
          <mxGeometry relative="1" as="geometry">
            <mxPoint x="1485" y="1321" as="targetPoint" />
            <Array as="points">
              <mxPoint x="1120" y="1280" />
              <mxPoint x="1410" y="1280" />
            </Array>
            <mxPoint x="1340" y="1320" as="sourcePoint" />
          </mxGeometry>
        </mxCell>
      </root>
    </mxGraphModel>
  </diagram>
</mxfile>
